HIERARCHY
ROOT Hips
{
	OFFSET 55.693600 10.313583 97.199600
	CHANNELS 6 Xposition Yposition Zposition Xrotation Yrotation Zrotation
	JOINT spine
	{
		OFFSET 0.000000 -0.458068 7.965683
		CHANNELS 3 Xrotation Yrotation Zrotation
		JOINT spine1
		{
			OFFSET 0.000000 -0.000002 10.243103
			CHANNELS 3 Xrotation Yrotation Zrotation
			JOINT spine2
			{
				OFFSET 0.000000 -0.000001 9.814751
				CHANNELS 3 Xrotation Yrotation Zrotation
				JOINT Neck
				{
					OFFSET 0.000000 -1.201385 25.198601
					CHANNELS 3 Xrotation Yrotation Zrotation
					JOINT Head
					{
						OFFSET 0.000000 -0.000001 7.613144
						CHANNELS 3 Xrotation Yrotation Zrotation
						End Site
						{
							OFFSET 0.000000 6.077328 18.428101
						}
					}
				}
				JOINT RightShoulder
				{
					OFFSET -4.132702 0.575449 10.599205
					CHANNELS 3 Xrotation Yrotation Zrotation
					JOINT RightArm
					{
						OFFSET 0.000000 -0.000003 13.901794
						CHANNELS 3 Xrotation Yrotation Zrotation
						JOINT RightArmRoll
						{
							OFFSET 0.000000 -0.000001 7.017883
							CHANNELS 3 Xrotation Yrotation Zrotation
							JOINT RightForeArm
							{
								OFFSET 0.000000 -0.000003 20.440598
								CHANNELS 3 Xrotation Yrotation Zrotation
								JOINT RightForeArmRoll
								{
									OFFSET 0.000000 -0.000002 7.875153
									CHANNELS 3 Xrotation Yrotation Zrotation
									JOINT RightHand
									{
										OFFSET 0.000000 -0.000002 15.803696
										CHANNELS 3 Xrotation Yrotation Zrotation
										End Site
										{
											OFFSET 0.000000 0.000000 0.100006
										}
									}
								}
							}
						}
					}
				}
				JOINT LeftShoulder
				{
					OFFSET 4.132702 0.575449 10.599205
					CHANNELS 3 Xrotation Yrotation Zrotation
					JOINT LeftArm
					{
						OFFSET 0.000000 -0.000003 13.901794
						CHANNELS 3 Xrotation Yrotation Zrotation
						JOINT LeftArmRoll
						{
							OFFSET 0.000000 -0.000001 7.017883
							CHANNELS 3 Xrotation Yrotation Zrotation
							JOINT LeftForeArm
							{
								OFFSET 0.000000 -0.000003 20.440598
								CHANNELS 3 Xrotation Yrotation Zrotation
								JOINT LeftForeArmRoll
								{
									OFFSET 0.000000 -0.000002 7.875153
									CHANNELS 3 Xrotation Yrotation Zrotation
									JOINT LeftHand
									{
										OFFSET 0.000000 -0.000002 15.803696
										CHANNELS 3 Xrotation Yrotation Zrotation
										End Site
										{
											OFFSET 0.000000 0.000000 0.100006
										}
									}
								}
							}
						}
					}
				}
			}
		}
	}
	JOINT RightUpLeg
	{
		OFFSET -7.060482 1.086101 -1.294701
		CHANNELS 3 Xrotation Yrotation Zrotation
		JOINT RightUpLegRoll
		{
			OFFSET 0.000000 -0.000004 18.530800
			CHANNELS 3 Xrotation Yrotation Zrotation
			JOINT RightLeg
			{
				OFFSET 0.000000 0.000004 -22.947601
				CHANNELS 3 Xrotation Yrotation Zrotation
				JOINT RightLegRoll
				{
					OFFSET 0.000000 -0.000004 23.022598
					CHANNELS 3 Xrotation Yrotation Zrotation
					JOINT RightFoot
					{
						OFFSET 0.000000 -0.000003 19.162506
						CHANNELS 3 Xrotation Yrotation Zrotation
						JOINT RightToeBase
						{
							OFFSET 0.000000 -0.000003 16.018799
							CHANNELS 3 Xrotation Yrotation Zrotation
							End Site
							{
								OFFSET 0.006790 0.894205 7.757828
							}
						}
					}
				}
			}
		}
	}
	JOINT LeftUpLeg
	{
		OFFSET 7.060482 1.086101 -1.294701
		CHANNELS 3 Xrotation Yrotation Zrotation
		JOINT LeftUpLegRoll
		{
			OFFSET 0.000000 -0.000004 18.530899
			CHANNELS 3 Xrotation Yrotation Zrotation
			JOINT LeftLeg
			{
				OFFSET 0.000000 -0.000003 22.947502
				CHANNELS 3 Xrotation Yrotation Zrotation
				JOINT LeftLegRoll
				{
					OFFSET 0.000000 -0.000004 23.235504
					CHANNELS 3 Xrotation Yrotation Zrotation
					JOINT LeftFoot
					{
						OFFSET 0.000000 -0.000004 18.949600
						CHANNELS 3 Xrotation Yrotation Zrotation
						JOINT LeftToeBase
						{
							OFFSET 0.000000 -0.000002 16.018799
							CHANNELS 3 Xrotation Yrotation Zrotation
							End Site
							{
								OFFSET -0.030430 0.894204 7.757828
							}
						}
					}
				}
			}
		}
	}
}
MOTION
Frames: 6
Frame Time: 0.041667
53.227497 -0.664305 96.822098 -6.565148 -0.739263 1.063082 0.038533 -0.321018 -0.307793 4.078261 -0.635391 -0.611957 5.723347 -0.637691 -0.604188 15.608254 6.865959 -0.724377 6.287520 -5.076353 -0.071318 -15.331181 -74.563468 -18.452115 105.030244 -64.185965 82.675171 -0.000004 0.000003 0.000005 42.060995 -21.593790 7.505397 -0.000005 0.000002 -3.000958 -4.999672 -7.999420 -0.000221 0.123016 64.880247 0.607991 -49.721489 119.064349 55.448111 -0.000001 -0.000018 -0.000001 26.901742 13.079973 -1.968935 0.000004 -0.000002 3.003841 -5.000402 7.998722 -0.000229 2.533352 -177.697248 2.960505 -179.999991 0.000005 -1.203994 170.895267 -1.251037 -0.667476 -0.000004 -0.000001 0.133942 69.065937 6.911322 2.084523 25.456950 -7.347340 -0.000002 2.652512 177.200993 0.087291 -0.000020 -0.000004 -1.220560 -10.440683 0.781765 0.376036 -0.000006 -0.000006 -0.179360 69.684684 -6.904101 -2.054729 25.456911 7.345094 0.000005 
53.226002 -0.655527 96.820198 -6.527331 -0.734588 1.046972 0.040599 -0.322392 -0.308447 4.082324 -0.638606 -0.613177 5.727411 -0.641279 -0.605377 15.530708 6.855513 -0.693979 6.236548 -5.087444 -0.045459 -15.273317 -74.534617 -18.388654 105.152845 -64.165058 83.005827 -0.000005 0.000005 0.000007 41.830947 -21.571443 7.446760 -0.000004 -0.000001 -3.000960 -4.999676 -7.999413 -0.000218 0.135990 64.859838 0.590844 -49.673801 119.041810 55.375250 -0.000001 -0.000017 -0.000001 26.794434 13.084897 -1.962222 0.000004 -0.000002 3.003841 -5.000399 7.998722 -0.000230 2.460736 -177.714105 2.927668 -179.999991 0.000005 -1.202997 170.851691 -1.229170 -0.668933 -0.000005 -0.000001 0.133816 69.063314 6.911358 2.084596 25.456950 -7.347340 -0.000002 2.574988 177.206813 0.102733 -0.000020 -0.000004 -1.220540 -10.499469 0.773705 0.377584 -0.000006 -0.000007 -0.179299 69.670969 -6.904259 -2.054711 25.456907 7.345094 0.000006 
53.224796 -0.643485 96.819801 -6.489578 -0.730005 1.030823 0.042622 -0.323759 -0.309149 4.086276 -0.641816 -0.614496 5.731365 -0.644875 -0.606666 15.454401 6.845765 -0.663269 6.184109 -5.099989 -0.019013 -15.212226 -74.504653 -18.321668 105.280003 -64.144963 83.342262 -0.000004 0.000004 0.000006 41.601248 -21.548603 7.388149 -0.000004 -0.000002 -3.000960 -4.999677 -7.999417 -0.000221 0.149441 64.839826 0.573192 -49.624668 119.019939 55.299667 -0.000003 -0.000018 0.000000 26.686126 13.089153 -1.955222 0.000002 -0.000002 3.003840 -5.000401 7.998721 -0.000228 2.389230 -177.730962 2.895297 -179.999991 0.000005 -1.202996 170.810081 -1.206317 -0.670142 -0.000004 -0.000001 0.133629 69.060364 6.911376 2.084583 25.456950 -7.347342 -0.000002 2.498734 177.212646 0.117676 -0.000019 -0.000004 -1.220520 -10.556154 0.766132 0.379064 -0.000005 -0.000006 -0.179196 69.657343 -6.904382 -2.054781 25.456911 7.345094 0.000005 
53.225895 -0.634404 96.815102 -6.451880 -0.725491 1.014650 0.044617 -0.325120 -0.309885 4.090149 -0.645019 -0.615882 5.735239 -0.648476 -0.608023 15.378721 6.836470 -0.632326 6.130661 -5.113565 0.007835 -15.149021 -74.473924 -18.252347 105.410419 -64.125627 83.682972 -0.000002 0.000003 0.000007 41.371982 -21.525500 7.329884 -0.000006 -0.000001 -3.000959 -4.999677 -7.999414 -0.000220 0.163223 64.820012 0.555190 -49.576996 118.997509 55.224982 -0.000003 -0.000018 -0.000000 26.577157 13.093062 -1.948070 0.000004 -0.000003 3.003838 -5.000396 7.998720 -0.000230 2.318510 -177.746849 2.863331 -179.999991 0.000005 -1.202996 170.769824 -1.184471 -0.671465 -0.000004 -0.000001 0.133399 69.057201 6.911422 2.084587 25.456953 -7.347340 -0.000002 2.423364 177.218492 0.132266 -0.000019 -0.000005 -1.220500 -10.611442 0.758898 0.380495 -0.000006 -0.000006 -0.179063 69.643723 -6.904498 -2.054850 25.456911 7.345096 0.000005 
53.234795 -0.611735 96.819000 -6.414199 -0.721028 0.998465 0.046590 -0.326477 -0.310640 4.093983 -0.648221 -0.617307 5.739063 -0.652080 -0.609418 15.303551 6.827418 -0.601268 6.076620 -5.127770 0.034899 -15.084717 -74.442737 -18.181795 105.542685 -64.106605 84.025855 -0.000003 0.000003 0.000007 41.142830 -21.502171 7.271871 -0.000005 -0.000001 -3.000959 -4.999675 -7.999415 -0.000220 0.177184 64.800300 0.537001 -49.528007 118.975830 55.148327 -0.000002 -0.000018 -0.000001 26.467625 13.096603 -1.940706 0.000003 -0.000001 3.003840 -5.000402 7.998723 -0.000230 2.248227 -177.763719 2.831542 -179.999991 0.000005 -1.202996 170.730400 -1.162619 -0.672738 -0.000004 -0.000001 0.133145 69.053937 6.911456 2.084498 25.456950 -7.347340 -0.000002 2.348500 177.224339 0.146647 -0.000020 -0.000005 -1.220480 -10.665830 0.751859 0.381892 -0.000006 -0.000006 -0.178913 69.630118 -6.904644 -2.054825 25.456912 7.345094 0.000006 
53.223896 -0.604486 96.816910 -6.376530 -0.716594 0.982270 0.048562 -0.327834 -0.311400 4.097795 -0.651421 -0.618741 5.742878 -0.655685 -0.610824 15.228583 6.818367 -0.570209 6.022424 -5.142176 0.061996 -15.020266 -74.411359 -18.111088 105.675478 -64.087849 84.369481 -0.000004 0.000004 0.000008 40.913841 -21.478763 7.214152 -0.000005 -0.000002 -3.000962 -4.999674 -7.999421 -0.000221 0.191172 64.780670 0.518781 -49.480332 118.953495 55.073096 -0.000002 -0.000018 -0.000001 26.358108 13.100180 -1.933378 0.000004 -0.000002 3.003841 -5.000399 7.998722 -0.000229 2.178050 -177.780603 2.799846 -179.999991 0.000005 -1.201999 170.691127 -1.140784 -0.672983 -0.000004 -0.000001 0.132884 69.050672 6.911456 2.084602 25.456953 -7.347340 -0.000002 2.273773 177.230186 0.160964 -0.000019 -0.000005 -1.220460 -10.720018 0.744865 0.383271 -0.000006 -0.000006 -0.178759 69.616594 -6.904722 -2.054882 25.456912 7.345094 0.000005 
